# xmcd
#
# Track frame offsets:
#	150
#	15531
#	41575
#	68538
#	84443
#	107203
#	145000
#	162126
#	181128
#	199264
#	216443
#	233328
#	249636
#
# Disc length: 3717
#
# Revision: 1
# Processed by: cddbd v1.5.1PL0 Copyright (c) Steve Scherf et al.
# Submitted via: EasyCDDAExtractor 5.0.5.1
# Normalized: r0:DSETVAR1
#
DISCID=a50e830d
DTITLE=Various Artist - BMG PROMO MUSIC SERVICE MARZEC 2003
DYEAR=2003
DGENRE=Acapella
TTITLE0=LOVE INC. - YOU'RE A SUPERSTAR(RADIO EDIT)
TTITLE1=LOVE INC. - YOU'RE A SUPERSTAR(CITY OF LOVE MIX)
TTITLE2=LOVE INC. - YOU'RE A SUPERSTAR(REZONANCE Q REMIX)
TTITLE3=ATC - NEW YORK CITY(RADIO EDIT)
TTITLE4=ATC - NEW YORK CITY(EXTENTED MIX)
TTITLE5=ATC - NEW YORK CITY(SOULFORCE VOCAL REMIX)
TTITLE6=DJ BOBO - I BELIEVE (RADIO EDIT)
TTITLE7=DJ BOBO - I BELIEVE (CLUB EDIT)
TTITLE8=CHRISTINA AQUILERA - BEATIFUL(RADIO EDIT)
TTITLE9=CHRISTINA AQUILERA - DAME LO QUE YO TO DOY(RADIO EDIT)
TTITLE10=AVRIL LAVIGNE - I'M WITH YOU(ALBUM VERSION)
TTITLE11=CINTHIE AKA VINYL PRINCESS - ALL WEE NEED(SHORT MIX)
TTITLE12=CINTHIE AKA VINYL PRINCESS - ALL WE NEED (ORIGINAL ALTE SCHULE MIX)
EXTD=
EXTT0=
EXTT1=
EXTT2=
EXTT3=
EXTT4=
EXTT5=
EXTT6=
EXTT7=
EXTT8=
EXTT9=
EXTT10=
EXTT11=
EXTT12=
PLAYORDER=
